<svg width="24" height="24" viewBox="0 0 24 24" fill="none" xmlns="http://www.w3.org/2000/svg">
<path d="M6.75 3.75C5.09315 3.75 3.75 5.09315 3.75 6.75C3.75 8.40685 5.09315 9.75 6.75 9.75C8.40685 9.75 9.75 8.40685 9.75 6.75C9.75 5.09315 8.40685 3.75 6.75 3.75Z" fill="#222222" stroke="#222222" stroke-width="2" stroke-linecap="round" stroke-linejoin="round"/>
<path d="M17.25 3.75C15.5931 3.75 14.25 5.09315 14.25 6.75C14.25 8.40685 15.5931 9.75 17.25 9.75C18.9069 9.75 20.25 8.40685 20.25 6.75C20.25 5.09315 18.9069 3.75 17.25 3.75Z" fill="#222222" stroke="#222222" stroke-width="2" stroke-linecap="round" stroke-linejoin="round"/>
<path d="M17.25 14.25C15.5931 14.25 14.25 15.5931 14.25 17.25C14.25 18.9069 15.5931 20.25 17.25 20.25C18.9069 20.25 20.25 18.9069 20.25 17.25C20.25 15.5931 18.9069 14.25 17.25 14.25Z" fill="#222222" stroke="#222222" stroke-width="2" stroke-linecap="round" stroke-linejoin="round"/>
<path d="M6.75 14.25C5.09315 14.25 3.75 15.5931 3.75 17.25C3.75 18.9069 5.09315 20.25 6.75 20.25C8.40685 20.25 9.75 18.9069 9.75 17.25C9.75 15.5931 8.40685 14.25 6.75 14.25Z" fill="#222222" stroke="#222222" stroke-width="2" stroke-linecap="round" stroke-linejoin="round"/>
</svg>
