<svg width="15" height="15" viewBox="0 0 15 15" fill="none" xmlns="http://www.w3.org/2000/svg">
<path d="M13.2006 6.34028H12.7232V6.31569H7.38992V8.68606H10.739C10.2504 10.0659 8.93747 11.0564 7.38992 11.0564C5.42636 11.0564 3.83436 9.46443 3.83436 7.50088C3.83436 5.53732 5.42636 3.94532 7.38992 3.94532C8.29629 3.94532 9.12088 4.28725 9.74873 4.84577L11.4249 3.16962C10.3665 2.18325 8.9508 1.57495 7.38992 1.57495C4.11732 1.57495 1.46399 4.22828 1.46399 7.50088C1.46399 10.7735 4.11732 13.4268 7.38992 13.4268C10.6625 13.4268 13.3158 10.7735 13.3158 7.50088C13.3158 7.10354 13.275 6.71569 13.2006 6.34028Z" fill="#FFC107"/>
<path d="M2.14627 4.74265L4.09323 6.17051C4.62005 4.86621 5.8959 3.94532 7.38894 3.94532C8.29531 3.94532 9.1199 4.28725 9.74775 4.84577L11.4239 3.16962C10.3655 2.18325 8.94983 1.57495 7.38894 1.57495C5.11279 1.57495 3.13886 2.85999 2.14627 4.74265Z" fill="#FF3D00"/>
<path d="M7.38902 13.4262C8.91969 13.4262 10.3105 12.8404 11.3621 11.8878L9.52798 10.3358C8.91303 10.8035 8.1616 11.0564 7.38902 11.0558C5.84769 11.0558 4.53895 10.073 4.04591 8.70142L2.11346 10.1903C3.0942 12.1094 5.08591 13.4262 7.38902 13.4262Z" fill="#44CA58"/>
<path d="M13.2 6.33905H12.7227V6.31445H7.38934V8.68482H10.7384C10.5047 9.34154 10.0837 9.91539 9.52742 10.3355L9.52831 10.3349L11.3624 11.8869C11.2326 12.0048 13.3153 10.4626 13.3153 7.49964C13.3153 7.1023 13.2744 6.71445 13.2 6.33905Z" fill="#1976D2"/>
</svg>
