<svg width="240" height="78" viewBox="0 0 240 78" fill="none" xmlns="http://www.w3.org/2000/svg">
<path d="M20.5547 46H12.0234L0.65625 12.1797H8.57812L16.3125 38.7109H16.4766L24.2109 12.1797H31.9219L20.5547 46ZM37.5469 55.3047C37.3125 55.3047 35.1797 55.2812 34.9688 55.2344V49.9609C35.1797 50.0078 36.4219 50.0078 36.6797 50.0078C39.1875 50.0078 40.4297 49.2109 40.8984 47.2188C40.8984 47.125 41.1562 46.1172 41.1094 46.0234L32.3672 20.875H39.8906L45.2344 40.5156H45.3516L50.6953 20.875H57.9141L49.2656 46.5625C47.1094 53.0078 43.9688 55.3047 37.5469 55.3047ZM69.4922 41.4531C72.4688 41.4531 74.9297 39.5078 74.9297 36.7891V34.9609L69.6328 35.2891C67.0781 35.4766 65.625 36.625 65.625 38.4062C65.625 40.2812 67.1719 41.4531 69.4922 41.4531ZM67.2422 46.3984C62.4609 46.3984 58.8281 43.3047 58.8281 38.7812C58.8281 34.2109 62.3438 31.5625 68.6016 31.1875L74.9297 30.8125V29.1484C74.9297 26.8047 73.2891 25.4453 70.7109 25.4453C68.1562 25.4453 66.5391 26.7109 66.2109 28.5625H59.9531C60.2109 23.6875 64.3594 20.3359 71.0156 20.3359C77.4609 20.3359 81.6562 23.6641 81.6562 28.7266V46H75.0469V42.1562H74.9062C73.5 44.8281 70.3828 46.3984 67.2422 46.3984ZM100.758 20.4766C107.133 20.4766 111.047 25.3281 111.047 33.4375C111.047 41.5234 107.156 46.3984 100.875 46.3984C97.2188 46.3984 94.4062 44.6172 93.0703 41.7812H92.9297V54.2031H86.0859V20.875H92.8359V25.2578H92.9766C94.3359 22.3047 97.125 20.4766 100.758 20.4766ZM98.4609 40.8906C101.883 40.8906 104.039 38.0078 104.039 33.4375C104.039 28.8906 101.883 25.9609 98.4609 25.9609C95.1094 25.9609 92.9062 28.9375 92.9062 33.4375C92.9062 37.9844 95.1094 40.8906 98.4609 40.8906ZM124.289 41.4531C127.266 41.4531 129.727 39.5078 129.727 36.7891V34.9609L124.43 35.2891C121.875 35.4766 120.422 36.625 120.422 38.4062C120.422 40.2812 121.969 41.4531 124.289 41.4531ZM122.039 46.3984C117.258 46.3984 113.625 43.3047 113.625 38.7812C113.625 34.2109 117.141 31.5625 123.398 31.1875L129.727 30.8125V29.1484C129.727 26.8047 128.086 25.4453 125.508 25.4453C122.953 25.4453 121.336 26.7109 121.008 28.5625H114.75C115.008 23.6875 119.156 20.3359 125.812 20.3359C132.258 20.3359 136.453 23.6641 136.453 28.7266V46H129.844V42.1562H129.703C128.297 44.8281 125.18 46.3984 122.039 46.3984ZM150.586 41.4531C153.562 41.4531 156.023 39.5078 156.023 36.7891V34.9609L150.727 35.2891C148.172 35.4766 146.719 36.625 146.719 38.4062C146.719 40.2812 148.266 41.4531 150.586 41.4531ZM148.336 46.3984C143.555 46.3984 139.922 43.3047 139.922 38.7812C139.922 34.2109 143.438 31.5625 149.695 31.1875L156.023 30.8125V29.1484C156.023 26.8047 154.383 25.4453 151.805 25.4453C149.25 25.4453 147.633 26.7109 147.305 28.5625H141.047C141.305 23.6875 145.453 20.3359 152.109 20.3359C158.555 20.3359 162.75 23.6641 162.75 28.7266V46H156.141V42.1562H156C154.594 44.8281 151.477 46.3984 148.336 46.3984ZM167.18 46V20.875H173.789V25.3984H173.93C174.82 22.2109 176.953 20.4766 179.906 20.4766C180.703 20.4766 181.383 20.5938 181.852 20.7344V26.7578C181.289 26.5234 180.352 26.3594 179.367 26.3594C175.992 26.3594 174.023 28.4219 174.023 31.9609V46H167.18ZM184.781 46V20.875H191.625V46H184.781ZM188.203 18.1094C186.141 18.1094 184.547 16.5391 184.547 14.5703C184.547 12.5781 186.141 11.0312 188.203 11.0312C190.266 11.0312 191.859 12.5781 191.859 14.5703C191.859 16.5391 190.266 18.1094 188.203 18.1094ZM198.023 46V26.0312H194.602V20.9922H198.023V19.0938C198.023 14.1719 200.344 11.875 206.297 11.875C207.562 11.875 208.992 12.0156 209.789 12.1797V16.7031C209.297 16.6094 208.617 16.5625 207.938 16.5625C205.688 16.5625 204.703 17.5469 204.703 19.3281V20.9922H209.695V26.0312H204.867V46H198.023ZM216.516 55.3047C216.281 55.3047 214.148 55.2812 213.938 55.2344V49.9609C214.148 50.0078 215.391 50.0078 215.648 50.0078C218.156 50.0078 219.398 49.2109 219.867 47.2188C219.867 47.125 220.125 46.1172 220.078 46.0234L211.336 20.875H218.859L224.203 40.5156H224.32L229.664 20.875H236.883L228.234 46.5625C226.078 53.0078 222.938 55.3047 216.516 55.3047Z" fill="white"/>
<path d="M7.48243 75.0043C57.6157 69.9002 173.72 61.5435 237.071 68.9495" stroke="white" stroke-opacity="0.75" stroke-width="4.8" stroke-linecap="round"/>
</svg>
